<?xml version="1.0" encoding="utf-8"?>
<!-- Generator: Adobe Illustrator 23.0.1, SVG Export Plug-In . SVG Version: 6.00 Build 0)  -->
<svg version="1.1" id="Layer_1" xmlns="http://www.w3.org/2000/svg" xmlns:xlink="http://www.w3.org/1999/xlink" x="0px" y="0px"
	 viewBox="0 0 300 68.5" style="enable-background:new 0 0 300 68.5;" xml:space="preserve">
<style type="text/css">
	.st0{fill:#EA2328;}
</style>
<title>CB White wTagline</title>
<desc>Created with Sketch.</desc>
<path id="Fill-1" d="M103.4,50.4c-10.6,0-15.9-7.6-15.9-16s5.5-15.9,16-15.9c4,0,6.9,0.9,9.3,2.5l-3,4.9c-1.7-1.1-3.6-1.8-6.4-1.8
	c-5.6,0-8.7,4.5-8.7,10.1c0,5.8,2.9,10.5,8.8,10.5c3.3,0,5.3-1.2,6.9-2.3l2.8,4.7C111.6,48.5,107.9,50.4,103.4,50.4"/>
<path id="Fill-3" d="M125.9,50.4c-7.9,0-11.4-5.9-11.4-11.8c0-5.8,3.4-11.9,11.3-11.9s11.5,5.9,11.5,11.7
	C137.4,44.2,133.8,50.4,125.9,50.4 M125.8,31.4c-3.4,0-4.5,2.8-4.5,7s1.3,7.1,4.7,7.1s4.6-2.8,4.6-6.9S129.2,31.4,125.8,31.4"/>
<path id="Fill-5" d="M147.3,27.3v14.5c0,2.2,0.8,3.3,2.9,3.3c2.3,0,4-2.2,4.5-2.7V27.3h6.4v15.9c0,3,0.3,5.2,0.6,6.6h-6.3
	c-0.2-0.6-0.4-2.1-0.5-3c-1.2,1.5-3.5,3.6-7.3,3.6c-5,0-6.8-3.2-6.8-7.3V27.3H147.3z"/>
<path id="Fill-7" d="M176.7,50.4c-7.3,0-11.8-4.7-11.8-11.8c0-7.6,5.1-11.9,12-11.9c3.7,0,5.8,1.1,6.9,1.8l-2,4.3
	c-1-0.6-2.4-1.3-4.7-1.3c-3.5,0-5.4,2.7-5.4,6.8s1.8,7.1,5.6,7.1c2.6,0,4.1-0.9,4.8-1.3l1.9,4.2C182.9,49,180.8,50.4,176.7,50.4"/>
<path id="Fill-9" d="M201,49.8V35.3c0-2.2-0.8-3.3-2.9-3.3c-2.3,0-4.1,2.1-4.5,2.7v15.1h-6.4V16.5h6.4v13.4c1.2-1.3,3.3-3.2,7-3.2
	c5,0,6.8,3.2,6.8,7.3v15.8H201z"/>
<path id="Fill-11" d="M218.9,16.5V29c1-1,3-2.3,5.5-2.3c5.6,0,9.6,3.8,9.6,11.7c0,7.8-5.2,12-12,12c-5.1,0-8.3-1.3-9.4-1.8v-32h6.3
	L218.9,16.5L218.9,16.5z M218.9,44.9c0.4,0.1,1.4,0.5,3,0.5c3.3,0,5.3-2.4,5.3-7c0-4.2-1.4-6.6-4.6-6.6c-1.9,0-3.3,1.2-3.7,1.7V44.9
	z"/>
<path id="Fill-13" d="M249.8,49.8c-0.2-0.6-0.3-1.7-0.4-2.4c-1,1.2-3.1,2.9-6.3,2.9c-3.8,0-6.8-2.3-6.8-6.4c0-5.9,6-8,12-8h0.8v-1.2
	c0-1.9-0.8-3-3.6-3c-2.9,0-4.9,1.5-5.7,2.1l-2.7-3.9c1.4-1.2,4.4-3.3,9.2-3.3c6.2,0,9.2,2.4,9.2,8.4v7.9c0,3.1,0.3,5.3,0.6,6.8
	L249.8,49.8L249.8,49.8z M249,39.9h-0.8c-3.5,0-5.9,1-5.9,3.6c0,1.6,1.3,2.3,2.7,2.3c2.1,0,3.4-1.2,4-1.9V39.9z"/>
<path id="Fill-15" d="M266.8,50.4c-4.1,0-6.7-1.2-8.1-2.1l2.1-4.4c0.9,0.6,3.1,1.8,5.6,1.8c2.3,0,3.6-0.7,3.6-1.9
	c0-1.5-2.6-1.9-5.8-3.4c-3.1-1.5-4.9-3.2-4.9-6.6c0-4.3,3.4-7,8.5-7c3.9,0,6.2,1.2,7.3,1.8l-2.2,4.3c-0.9-0.5-2.7-1.4-4.8-1.4
	c-2.1,0-3,0.8-3,1.9c0,1.5,2.1,1.8,4.7,2.9c3.6,1.4,6.1,3.1,6.1,6.9C275.8,47.9,272.4,50.4,266.8,50.4"/>
<path id="Fill-17" d="M290.6,45.7c3,0,4.7-1,5.8-1.5l2,4.1c-1.5,0.8-3.8,2.2-8.5,2.2c-7.6,0-11.9-4.7-11.9-11.9s5-11.7,11.2-11.7
	c7.1,0,10.5,4.9,9.8,13.4h-14.2C285.2,43.4,286.9,45.7,290.6,45.7L290.6,45.7z M293,35.8c0-2.5-1-4.5-3.8-4.5
	c-2.5,0-3.9,1.6-4.4,4.5H293z"/>
<path id="Logo-Icon" class="st0" d="M57.2,40.2c0,2-1.2,3.8-3.5,4.2c-4,0.7-12.4,1.1-19.5,1.1S18.7,45,14.7,44.4
	c-2.3-0.4-3.5-2.2-3.5-4.2V27c0-2,1.6-3.9,3.5-4.2c1.2-0.2,3.9-0.4,6.1-0.4c0.8,0,1.5,0.6,1.5,1.6v9.2c4.1,0,7.7-0.2,11.9-0.2
	s7.8,0.2,11.9,0.2V24c0-1,0.7-1.6,1.5-1.6c2.2,0,4.9,0.2,6.1,0.4c1.9,0.3,3.5,2.2,3.5,4.2L57.2,40.2z M34.2,0.5
	c-18.8,0-34,15.1-34,33.8s15.2,33.8,34,33.8s34-15.1,34-33.8S53,0.5,34.2,0.5L34.2,0.5z"/>
</svg>
