<?xml version="1.0" encoding="UTF-8" standalone="no"?><svg xmlns="http://www.w3.org/2000/svg" xmlns:xlink="http://www.w3.org/1999/xlink" contentScriptType="application/ecmascript" contentStyleType="text/css" height="379px" preserveAspectRatio="none" style="width:131px;height:379px;background:#FFFFFF;" version="1.1" viewBox="0 0 131 379" width="131px" zoomAndPan="magnify"><defs><filter height="300%" id="f1oeczynhu5q1l" width="300%" x="-1" y="-1"><feGaussianBlur result="blurOut" stdDeviation="2.0"/><feColorMatrix in="blurOut" result="blurOut2" type="matrix" values="0 0 0 0 0 0 0 0 0 0 0 0 0 0 0 0 0 0 .4 0"/><feOffset dx="4.0" dy="4.0" in="blurOut2" result="blurOut3"/><feBlend in="SourceGraphic" in2="blurOut3" mode="normal"/></filter></defs><g><!--MD5=[e987a9053741ca611bbb00ccd0372f5a]
entity bucket--><path d="M34,16 C34,6 65,6 65,6 C65,6 96,6 96,16 L96,41.7999 C96,51.7999 65,51.7999 65,51.7999 C65,51.7999 34,51.7999 34,41.7999 L34,16 " fill="#FEFECE" filter="url(#f1oeczynhu5q1l)" style="stroke:#000000;stroke-width:1.5;"/><path d="M34,16 C34,26 65,26 65,26 C65,26 96,26 96,16 " fill="none" style="stroke:#000000;stroke-width:1.5;"/><text fill="#000000" font-family="sans-serif" font-size="14" lengthAdjust="spacing" textLength="42" x="44" y="43.9999">Bucket</text><!--MD5=[c8a1f054d404df0a65fc25cf7fbed36b]
entity scope--><polygon fill="#FEFECE" filter="url(#f1oeczynhu5q1l)" points="26,122,36,112,104,112,104,148.7999,94,158.7999,26,158.7999,26,122" style="stroke:#000000;stroke-width:1.5;"/><line style="stroke:#000000;stroke-width:1.5;" x1="94" x2="104" y1="122" y2="112"/><line style="stroke:#000000;stroke-width:1.5;" x1="26" x2="94" y1="122" y2="122"/><line style="stroke:#000000;stroke-width:1.5;" x1="94" x2="94" y1="122" y2="158.7999"/><text fill="#000000" font-family="sans-serif" font-size="14" lengthAdjust="spacing" textLength="38" x="41" y="145.9999">Scope</text><!--MD5=[e8144009250fefa8de7ab17e8fe20380]
entity collection--><polygon fill="#FEFECE" filter="url(#f1oeczynhu5q1l)" points="16,219,62,219,69,240,114,240,114,275.5999,16,275.5999,16,219" style="stroke:#000000;stroke-width:1.5;"/><line style="stroke:#000000;stroke-width:1.5;" x1="16" x2="69" y1="240" y2="240"/><text fill="#000000" font-family="sans-serif" font-size="14" lengthAdjust="spacing" textLength="59" x="26" y="260.9999">Collection</text><!--MD5=[ed21734bf4b7460cda4bd124807a15d0]
entity document--><polygon fill="#FEFECE" filter="url(#f1oeczynhu5q1l)" points="24,336,24,372.7999,106,372.7999,106,346,96,336,24,336" style="stroke:#000000;stroke-width:1.5;"/><path d="M96,336 L96,346 L106,346 " fill="#FEFECE" style="stroke:#000000;stroke-width:1.5;"/><text fill="#000000" font-family="sans-serif" font-size="14" lengthAdjust="spacing" textLength="62" x="34" y="359.9999">Document</text><!--MD5=[a8178d1de33984ce3b5ea76419192a56]
link bucket to scope--><path d="M65,52.16 C65,68.02 65,89.48 65,106.51 " fill="none" id="bucket-to-scope" style="stroke:#A80036;stroke-width:1.0;"/><polygon fill="#A80036" points="65,111.65,69,102.65,65,106.65,61,102.65,65,111.65" style="stroke:#A80036;stroke-width:1.0;"/><!--MD5=[bd95b2d60b83b38d7618f2ab0aa9393c]
link scope to collection--><path d="M65,159.03 C65,174.75 65,195.98 65,213.6 " fill="none" id="scope-to-collection" style="stroke:#A80036;stroke-width:1.0;"/><polygon fill="#A80036" points="65,218.94,69,209.94,65,213.94,61,209.94,65,218.94" style="stroke:#A80036;stroke-width:1.0;"/><!--MD5=[a35d6dce73db1f3d2b543a9e9227ee37]
link collection to document--><path d="M65,276.09 C65,293.12 65,314.71 65,330.75 " fill="none" id="collection-to-document" style="stroke:#A80036;stroke-width:1.0;"/><polygon fill="#A80036" points="65,335.97,69,326.97,65,330.97,61,326.97,65,335.97" style="stroke:#A80036;stroke-width:1.0;"/><!--MD5=[8f1be0f0f799268a561a0b4af54f815b]
@startuml



    database "Bucket" as bucket

    node "Scope" as scope

 folder "Collection" as collection



file  "Document" as document

bucket - -> scope
scope - -> collection
collection - -> document

@enduml

PlantUML version 1.2021.10(Mon Aug 30 13:43:48 GMT 2021)
(GPL source distribution)
Java Runtime: OpenJDK Runtime Environment
JVM: OpenJDK 64-Bit Server VM
Default Encoding: UTF-8
Language: en
Country: US
--></g></svg>