<?xml version="1.0" encoding="UTF-8" standalone="no"?><svg xmlns="http://www.w3.org/2000/svg" xmlns:xlink="http://www.w3.org/1999/xlink" contentScriptType="application/ecmascript" contentStyleType="text/css" height="436px" preserveAspectRatio="none" style="width:566px;height:436px;background:#FFFFFF;" version="1.1" viewBox="0 0 566 436" width="566px" zoomAndPan="magnify"><defs><filter height="300%" id="fqwzs903d36zj" width="300%" x="-1" y="-1"><feGaussianBlur result="blurOut" stdDeviation="2.0"/><feColorMatrix in="blurOut" result="blurOut2" type="matrix" values="0 0 0 0 0 0 0 0 0 0 0 0 0 0 0 0 0 0 .4 0"/><feOffset dx="4.0" dy="4.0" in="blurOut2" result="blurOut3"/><feBlend in="SourceGraphic" in2="blurOut3" mode="normal"/></filter></defs><g><!--MD5=[d0af2dd8d3d3735f6644ab32d8872cab]
cluster student-bucket--><path d="M6,16 C6,6 282.5,6 282.5,6 C282.5,6 559,6 559,16 L559,419 C559,429 282.5,429 282.5,429 C282.5,429 6,429 6,419 L6,16 " fill="#FFFFFF" filter="url(#fqwzs903d36zj)" style="stroke:#000000;stroke-width:1.5;"/><path d="M6,16 C6,26 282.5,26 282.5,26 C282.5,26 559,26 559,16 " fill="none" style="stroke:#000000;stroke-width:1.5;"/><text fill="#000000" font-family="sans-serif" font-size="14" font-weight="bold" lengthAdjust="spacing" textLength="105" x="230" y="41.9999">student-bucket</text><!--MD5=[429fbea4099ca684fc510b8badc72dc6]
cluster art-school-scope--><polygon fill="#FFFFFF" filter="url(#fqwzs903d36zj)" points="30,74,40,64,535,64,535,395,525,405,30,405,30,74" style="stroke:#000000;stroke-width:1.5;"/><line style="stroke:#000000;stroke-width:1.5;" x1="525" x2="535" y1="74" y2="64"/><line style="stroke:#000000;stroke-width:1.5;" x1="30" x2="525" y1="74" y2="74"/><line style="stroke:#000000;stroke-width:1.5;" x1="525" x2="525" y1="74" y2="405"/><text fill="#000000" font-family="sans-serif" font-size="14" font-weight="bold" lengthAdjust="spacing" textLength="116" x="220.5" y="90.9999">art-school-scope</text><!--MD5=[c549f9a7622a6f29940060ff32f06853]
cluster student-record-collection--><polygon fill="#FFFFFF" filter="url(#fqwzs903d36zj)" points="54,112,235,112,242,134.7999,261,134.7999,261,381,54,381,54,112" style="stroke:#000000;stroke-width:1.5;"/><line style="stroke:#000000;stroke-width:1.5;" x1="54" x2="242" y1="134.7999" y2="134.7999"/><text fill="#000000" font-family="sans-serif" font-size="14" font-weight="bold" lengthAdjust="spacing" textLength="175" x="58" y="127.9999">student-record-collection</text><!--MD5=[8067c004bfa47c2522cbb3df1cf2b05a]
cluster hilary--><polygon fill="#FFFFFF" filter="url(#fqwzs903d36zj)" points="78,155,78,244,237,244,237,165,227,155,78,155" style="stroke:#000000;stroke-width:1.5;"/><path d="M227,155 L227,165 L237,165 " fill="#FFFFFF" style="stroke:#000000;stroke-width:1.5;"/><text fill="#000000" font-family="sans-serif" font-size="14" font-weight="bold" lengthAdjust="spacing" textLength="98" x="108.5" y="170.9999">Hilary's record</text><!--MD5=[1817e708aa420466df2c565d302616ef]
cluster ashley--><polygon fill="#FFFFFF" filter="url(#fqwzs903d36zj)" points="78,268,78,357,237,357,237,278,227,268,78,268" style="stroke:#000000;stroke-width:1.5;"/><path d="M227,268 L227,278 L237,278 " fill="#FFFFFF" style="stroke:#000000;stroke-width:1.5;"/><text fill="#000000" font-family="sans-serif" font-size="14" font-weight="bold" lengthAdjust="spacing" textLength="105" x="105" y="283.9999">Ashley's record</text><!--MD5=[b2b2485e8270b66a952b0b23e974b970]
cluster course-record-collection--><polygon fill="#FFFFFF" filter="url(#fqwzs903d36zj)" points="285,124,460,124,467,146.7999,511,146.7999,511,357,285,357,285,124" style="stroke:#000000;stroke-width:1.5;"/><line style="stroke:#000000;stroke-width:1.5;" x1="285" x2="467" y1="146.7999" y2="146.7999"/><text fill="#000000" font-family="sans-serif" font-size="14" font-weight="bold" lengthAdjust="spacing" textLength="169" x="289" y="139.9999">course-record-collection</text><!--MD5=[a1005649a9b349b83e80fc8989c1275b]
entity hilary_enrollment--><polygon fill="#FEFECE" filter="url(#fqwzs903d36zj)" points="94,190.5,94,227.2999,221,227.2999,221,200.5,211,190.5,94,190.5" style="stroke:#000000;stroke-width:1.5;"/><path d="M211,190.5 L211,200.5 L221,200.5 " fill="#FEFECE" style="stroke:#000000;stroke-width:1.5;"/><text fill="#000000" font-family="sans-serif" font-size="14" lengthAdjust="spacing" textLength="107" x="104" y="214.4999">enrollment details</text><!--MD5=[250b51c47d048ff6b9ac2bb9e86eed03]
entity ashley_enrollment--><polygon fill="#FEFECE" filter="url(#fqwzs903d36zj)" points="94,303.5,94,340.2999,221,340.2999,221,313.5,211,303.5,94,303.5" style="stroke:#000000;stroke-width:1.5;"/><path d="M211,303.5 L211,313.5 L221,313.5 " fill="#FEFECE" style="stroke:#000000;stroke-width:1.5;"/><text fill="#000000" font-family="sans-serif" font-size="14" lengthAdjust="spacing" textLength="107" x="104" y="327.4999">enrollment details</text><!--MD5=[939a44a4d26216bcaf70e414863ecd5c]
entity art_history--><polygon fill="#FEFECE" filter="url(#fqwzs903d36zj)" points="314,159.5,314,196.2999,482,196.2999,482,169.5,472,159.5,314,159.5" style="stroke:#000000;stroke-width:1.5;"/><path d="M472,159.5 L472,169.5 L482,169.5 " fill="#FEFECE" style="stroke:#000000;stroke-width:1.5;"/><text fill="#000000" font-family="sans-serif" font-size="14" lengthAdjust="spacing" textLength="148" x="324" y="183.4999">ART-HISTORY-000001</text><!--MD5=[1c56db65505009124ddf52d745512baa]
entity graphic_design--><polygon fill="#FEFECE" filter="url(#fqwzs903d36zj)" points="301,231.5,301,268.2999,495,268.2999,495,241.5,485,231.5,301,231.5" style="stroke:#000000;stroke-width:1.5;"/><path d="M485,231.5 L485,241.5 L495,241.5 " fill="#FEFECE" style="stroke:#000000;stroke-width:1.5;"/><text fill="#000000" font-family="sans-serif" font-size="14" lengthAdjust="spacing" textLength="174" x="311" y="255.4999">GRAPHIC-DESIGN-000003</text><!--MD5=[e295bc4042fc8bc27a7f42035060d332]
entity fine_art--><polygon fill="#FEFECE" filter="url(#fqwzs903d36zj)" points="328,303.5,328,340.2999,468,340.2999,468,313.5,458,303.5,328,303.5" style="stroke:#000000;stroke-width:1.5;"/><path d="M458,303.5 L458,313.5 L468,313.5 " fill="#FEFECE" style="stroke:#000000;stroke-width:1.5;"/><text fill="#000000" font-family="sans-serif" font-size="14" lengthAdjust="spacing" textLength="120" x="338" y="327.4999">FINE_ART-000002</text><!--MD5=[d67dd656c5093ffb0c2acc70641eef72]
link hilary_enrollment to art_history--><path d="M221.16,200.86 C247.91,197.38 279.6,193.26 308.66,189.48 " fill="none" id="hilary_enrollment-to-art_history" style="stroke:#A80036;stroke-width:1.0;"/><polygon fill="#A80036" points="313.67,188.83,304.2303,186.0207,308.7115,189.473,305.2592,193.9542,313.67,188.83" style="stroke:#A80036;stroke-width:1.0;"/><!--MD5=[7a666f70c37fa626872c4a29c66529e6]
link hilary_enrollment to graphic_design--><path d="M221.16,219.77 C243.94,223.69 270.29,228.22 295.56,232.56 " fill="none" id="hilary_enrollment-to-graphic_design" style="stroke:#A80036;stroke-width:1.0;"/><polygon fill="#A80036" points="300.59,233.43,292.3957,227.9662,295.662,232.5848,291.0433,235.851,300.59,233.43" style="stroke:#A80036;stroke-width:1.0;"/><!--MD5=[caeb9bdd7db4f579eb4dba1418a73ae2]
link ashley_enrollment to fine_art--><path d="M221.16,322 C252.21,322 289.92,322 322.45,322 " fill="none" id="ashley_enrollment-to-fine_art" style="stroke:#A80036;stroke-width:1.0;"/><polygon fill="#A80036" points="327.62,322,318.62,318,322.62,322,318.62,326,327.62,322" style="stroke:#A80036;stroke-width:1.0;"/><!--MD5=[a5844dd053dfb1c8c3569e24d2dfcf38]
@startuml
left to right direction


    database "student-bucket" {

        node "art-school-scope" {

                folder "student-record-collection" {

                    file  "Hilary's record" as hilary {
                        file "enrollment details" as hilary_enrollment
                    }

                    file "Ashley's record" as ashley {
                        file "enrollment details" as ashley_enrollment

                    }

                }

                folder "course-record-collection" {

                    file "ART-HISTORY-000001" as art_history
                    file "GRAPHIC-DESIGN-000003" as graphic_design
                    file "FINE_ART-000002" as fine_art
                }

                hilary_enrollment - -> art_history
                hilary_enrollment - -> graphic_design
                ashley_enrollment - ->fine_art
        }

    }

@enduml

PlantUML version 1.2021.10(Mon Aug 30 13:43:48 GMT 2021)
(GPL source distribution)
Java Runtime: OpenJDK Runtime Environment
JVM: OpenJDK 64-Bit Server VM
Default Encoding: UTF-8
Language: en
Country: US
--></g></svg>