<?xml version="1.0" encoding="UTF-8" standalone="no"?><svg xmlns="http://www.w3.org/2000/svg" xmlns:xlink="http://www.w3.org/1999/xlink" contentScriptType="application/ecmascript" contentStyleType="text/css" height="295px" preserveAspectRatio="none" style="width:219px;height:295px;background:#FFFFFF;" version="1.1" viewBox="0 0 219 295" width="219px" zoomAndPan="magnify"><defs><filter height="300%" id="f6s4gqofb1cnr" width="300%" x="-1" y="-1"><feGaussianBlur result="blurOut" stdDeviation="2.0"/><feColorMatrix in="blurOut" result="blurOut2" type="matrix" values="0 0 0 0 0 0 0 0 0 0 0 0 0 0 0 0 0 0 .4 0"/><feOffset dx="4.0" dy="4.0" in="blurOut2" result="blurOut3"/><feBlend in="SourceGraphic" in2="blurOut3" mode="normal"/></filter></defs><g><!--MD5=[e6f955026f95a25accb184d80cb741ec]
class student--><rect codeLine="2" fill="#FEFECE" filter="url(#f6s4gqofb1cnr)" height="87.5997" id="student" style="stroke:#A80036;stroke-width:1.5;" width="73" x="7" y="13.5"/><ellipse cx="23.8" cy="29.5" fill="#ADD1B2" rx="11" ry="11" style="stroke:#A80036;stroke-width:1.0;"/><path d="M25.9563,31.9219 Q25.9563,30.7813 26.8,30.7813 Q27.6438,30.7813 27.6438,31.9219 L27.6438,34.5 L19.6438,34.5 Q18.5188,34.5 18.5188,33.6563 Q18.5188,32.7969 19.6438,32.7969 L19.8938,32.7969 L19.8938,26.2813 L19.6438,26.2813 Q18.5188,26.2813 18.5188,25.4375 Q18.5188,24.9531 18.8,24.7813 Q19.0969,24.5938 19.6438,24.5938 L27.2688,24.5938 L27.2688,27.1406 Q27.2688,28.2813 26.425,28.2813 Q25.5813,28.2813 25.5813,27.1406 L25.5813,26.2813 L21.5969,26.2813 L21.5969,28.6875 L23.05,28.6875 L23.05,28.5625 Q23.05,27.4219 23.8781,27.4219 Q24.7219,27.4219 24.7219,28.5625 L24.7219,30.4844 Q24.7219,31.6094 23.8938,31.6094 Q23.05,31.6094 23.05,30.4844 L23.05,30.375 L21.5969,30.375 L21.5969,32.7969 L25.9563,32.7969 L25.9563,31.9219 Z " fill="#000000"/><text fill="#000000" font-family="sans-serif" font-size="12" lengthAdjust="spacing" textLength="37" x="38.2" y="34.3">student</text><line style="stroke:#A80036;stroke-width:1.5;" x1="8" x2="79" y1="45.5" y2="45.5"/><ellipse cx="18" cy="56.5" fill="#000000" rx="3" ry="3" style="stroke:#000000;stroke-width:1.0;"/><text fill="#000000" font-family="sans-serif" font-size="11" lengthAdjust="spacing" textLength="47" x="27" y="60.4999">student-id</text><line style="stroke:#A80036;stroke-width:1.0;" x1="8" x2="79" y1="66.6999" y2="66.6999"/><text fill="#000000" font-family="sans-serif" font-size="11" lengthAdjust="spacing" textLength="27" x="13" y="81.6998">name</text><text fill="#000000" font-family="sans-serif" font-size="11" lengthAdjust="spacing" textLength="59" x="13" y="94.8997">date-of-birth</text><!--MD5=[67569426bc0d5335c7e46a57db929d9b]
class course--><rect codeLine="10" fill="#FEFECE" filter="url(#f6s4gqofb1cnr)" height="100.7996" id="course" style="stroke:#A80036;stroke-width:1.5;" width="90" x="115.5" y="7"/><ellipse cx="141.3" cy="23" fill="#ADD1B2" rx="11" ry="11" style="stroke:#A80036;stroke-width:1.0;"/><path d="M143.4563,25.4219 Q143.4563,24.2813 144.3,24.2813 Q145.1438,24.2813 145.1438,25.4219 L145.1438,28 L137.1438,28 Q136.0188,28 136.0188,27.1563 Q136.0188,26.2969 137.1438,26.2969 L137.3938,26.2969 L137.3938,19.7813 L137.1438,19.7813 Q136.0188,19.7813 136.0188,18.9375 Q136.0188,18.4531 136.3,18.2813 Q136.5969,18.0938 137.1438,18.0938 L144.7688,18.0938 L144.7688,20.6406 Q144.7688,21.7813 143.925,21.7813 Q143.0813,21.7813 143.0813,20.6406 L143.0813,19.7813 L139.0969,19.7813 L139.0969,22.1875 L140.55,22.1875 L140.55,22.0625 Q140.55,20.9219 141.3781,20.9219 Q142.2219,20.9219 142.2219,22.0625 L142.2219,23.9844 Q142.2219,25.1094 141.3938,25.1094 Q140.55,25.1094 140.55,23.9844 L140.55,23.875 L139.0969,23.875 L139.0969,26.2969 L143.4563,26.2969 L143.4563,25.4219 Z " fill="#000000"/><text fill="#000000" font-family="sans-serif" font-size="12" lengthAdjust="spacing" textLength="34" x="157.7" y="27.8">course</text><line style="stroke:#A80036;stroke-width:1.5;" x1="116.5" x2="204.5" y1="39" y2="39"/><ellipse cx="126.5" cy="50" fill="#000000" rx="3" ry="3" style="stroke:#000000;stroke-width:1.0;"/><text fill="#000000" font-family="sans-serif" font-size="11" lengthAdjust="spacing" textLength="45" x="135.5" y="53.9999">course-id</text><text fill="#000000" font-family="sans-serif" font-size="11" lengthAdjust="spacing" textLength="64" x="135.5" y="67.1998">course-name</text><text fill="#000000" font-family="sans-serif" font-size="11" lengthAdjust="spacing" textLength="31" x="135.5" y="80.3997">faculty</text><text fill="#000000" font-family="sans-serif" font-size="11" lengthAdjust="spacing" textLength="59" x="135.5" y="93.5996">credit-points</text><line style="stroke:#A80036;stroke-width:1.5;" x1="116.5" x2="204.5" y1="99.7996" y2="99.7996"/><!--MD5=[2159d546e4fdc44af037ea78dcdad4d0]
class enrollment--><rect codeLine="17" fill="#FEFECE" filter="url(#f6s4gqofb1cnr)" height="113.9995" id="enrollment" style="stroke:#A80036;stroke-width:1.5;" width="101" x="51" y="168"/><ellipse cx="73.2" cy="184" fill="#ADD1B2" rx="11" ry="11" style="stroke:#A80036;stroke-width:1.0;"/><path d="M75.3563,186.4219 Q75.3563,185.2813 76.2,185.2813 Q77.0438,185.2813 77.0438,186.4219 L77.0438,189 L69.0438,189 Q67.9188,189 67.9188,188.1563 Q67.9188,187.2969 69.0438,187.2969 L69.2938,187.2969 L69.2938,180.7813 L69.0438,180.7813 Q67.9188,180.7813 67.9188,179.9375 Q67.9188,179.4531 68.2,179.2813 Q68.4969,179.0938 69.0438,179.0938 L76.6688,179.0938 L76.6688,181.6406 Q76.6688,182.7813 75.825,182.7813 Q74.9813,182.7813 74.9813,181.6406 L74.9813,180.7813 L70.9969,180.7813 L70.9969,183.1875 L72.45,183.1875 L72.45,183.0625 Q72.45,181.9219 73.2781,181.9219 Q74.1219,181.9219 74.1219,183.0625 L74.1219,184.9844 Q74.1219,186.1094 73.2938,186.1094 Q72.45,186.1094 72.45,184.9844 L72.45,184.875 L70.9969,184.875 L70.9969,187.2969 L75.3563,187.2969 L75.3563,186.4219 Z " fill="#000000"/><text fill="#000000" font-family="sans-serif" font-size="12" lengthAdjust="spacing" textLength="53" x="88.8" y="188.8">enrollment</text><line style="stroke:#A80036;stroke-width:1.5;" x1="52" x2="151" y1="200" y2="200"/><text fill="#000000" font-family="sans-serif" font-size="11" lengthAdjust="spacing" textLength="0" x="74" y="214.9999"/><ellipse cx="62" cy="224.1999" fill="#000000" rx="3" ry="3" style="stroke:#000000;stroke-width:1.0;"/><text fill="#000000" font-family="sans-serif" font-size="11" lengthAdjust="spacing" textLength="47" x="71" y="228.1998">student-id</text><ellipse cx="62" cy="237.3998" fill="#000000" rx="3" ry="3" style="stroke:#000000;stroke-width:1.0;"/><text fill="#000000" font-family="sans-serif" font-size="11" lengthAdjust="spacing" textLength="45" x="71" y="241.3997">course-id</text><line style="stroke:#A80036;stroke-width:1.0;" x1="52" x2="151" y1="247.5997" y2="247.5997"/><ellipse cx="62" cy="258.5997" fill="#000000" rx="3" ry="3" style="stroke:#000000;stroke-width:1.0;"/><text fill="#000000" font-family="sans-serif" font-size="11" lengthAdjust="spacing" textLength="63" x="71" y="262.5996">date-enrolled</text><text fill="#000000" font-family="sans-serif" font-size="11" lengthAdjust="spacing" textLength="75" x="71" y="275.7995">date-completed</text><!--MD5=[41abdb7229b8622b2ba36a1871a4ace5]
link student to enrollment--><path codeLine="27" d="M65.5,101.51 C65.5,101.51 65.5,159.73 65.5,159.73 " fill="none" id="student-to-enrollment" style="stroke:#A80036;stroke-width:1.0;"/><line style="stroke:#A80036;stroke-width:1.0;" x1="65.5" x2="71.5" y1="159.73" y2="167.73"/><line style="stroke:#A80036;stroke-width:1.0;" x1="65.5" x2="59.5" y1="159.73" y2="167.73"/><line style="stroke:#A80036;stroke-width:1.0;" x1="65.5" x2="65.5" y1="159.73" y2="167.73"/><ellipse cx="65.5" cy="153.73" rx="4" ry="4" style="stroke:#A80036;stroke-width:1.0;fill:none;"/><!--MD5=[1b3e54de257a8e5f2a1ba1595a13bf3a]
link course to enrollment--><path codeLine="28" d="M133.75,108.21 C133.75,108.21 133.75,159.72 133.75,159.72 " fill="none" id="course-to-enrollment" style="stroke:#A80036;stroke-width:1.0;"/><line style="stroke:#A80036;stroke-width:1.0;" x1="133.75" x2="139.75" y1="159.72" y2="167.72"/><line style="stroke:#A80036;stroke-width:1.0;" x1="133.75" x2="127.75" y1="159.72" y2="167.72"/><line style="stroke:#A80036;stroke-width:1.0;" x1="133.75" x2="133.75" y1="159.72" y2="167.72"/><ellipse cx="133.75" cy="153.72" rx="4" ry="4" style="stroke:#A80036;stroke-width:1.0;fill:none;"/><!--MD5=[00deb67281a985ed83586fea2fb0f9cc]
@startuml
skinparam linetype ortho
entity student {
  * student-id
- -
    name
    date-of-birth
}


entity course {
  * course-id
    course-name
    faculty
    credit-points
}

entity enrollment {

    * student-id
    * course-id
- -
    * date-enrolled
      date-completed
}


student - -o{ enrollment
course - -o{ enrollment

@enduml

PlantUML version 1.2021.10(Mon Aug 30 13:43:48 GMT 2021)
(GPL source distribution)
Java Runtime: OpenJDK Runtime Environment
JVM: OpenJDK 64-Bit Server VM
Default Encoding: UTF-8
Language: en
Country: US
--></g></svg>